<?xml version="1.0" encoding="UTF-8" standalone="no"?>
<svg
   xmlns:dc="http://purl.org/dc/elements/1.1/"
   xmlns:cc="http://creativecommons.org/ns#"
   xmlns:rdf="http://www.w3.org/1999/02/22-rdf-syntax-ns#"
   xmlns:svg="http://www.w3.org/2000/svg"
   xmlns="http://www.w3.org/2000/svg"
   viewBox="0 0 213.73334 221.69333"
   height="221.69333"
   width="213.73334"
   xml:space="preserve"
   id="svg2"
   version="1.1"><metadata
     id="metadata8"><rdf:RDF><cc:Work
         rdf:about=""><dc:format>image/svg+xml</dc:format><dc:type
           rdf:resource="http://purl.org/dc/dcmitype/StillImage" /></cc:Work></rdf:RDF></metadata><defs
     id="defs6" /><g
     transform="matrix(1.3333333,0,0,-1.3333333,0,221.69333)"
     id="g10"><g
       transform="scale(0.1)"
       id="g12"><path
         id="path14"
         style="fill:#244ba6;fill-opacity:1;fill-rule:nonzero;stroke:none"
         d="m 645.555,538.594 c 0,33.5 16.515,59.062 52.242,59.062 35.723,0 52.238,-25.562 52.238,-59.062 0,-33.504 -16.515,-59.071 -52.238,-59.071 -35.727,0 -52.242,25.567 -52.242,59.071 z m 73.515,0 c 0,25.879 0,54.465 -21.273,54.465 -21.277,0 -21.277,-28.586 -21.277,-54.465 0,-25.883 0,-54.461 21.277,-54.461 21.273,0 21.273,28.578 21.273,54.461" /><path
         id="path16"
         style="fill:none;stroke:#244ba6;stroke-width:3.5999999;stroke-linecap:butt;stroke-linejoin:miter;stroke-miterlimit:4;stroke-dasharray:none;stroke-opacity:1"
         d="m 645.555,538.594 c 0,33.5 16.515,59.062 52.242,59.062 35.723,0 52.238,-25.562 52.238,-59.062 0,-33.504 -16.515,-59.071 -52.238,-59.071 -35.727,0 -52.242,25.567 -52.242,59.071 z m 73.515,0 c 0,25.879 0,54.465 -21.273,54.465 -21.277,0 -21.277,-28.586 -21.277,-54.465 0,-25.883 0,-54.461 21.277,-54.461 21.273,0 21.273,28.578 21.273,54.461 z" /><path
         id="path18"
         style="fill:#244ba6;fill-opacity:1;fill-rule:nonzero;stroke:none"
         d="m 764.633,595.117 h 56.051 v -4.605 h -2.539 c -2.864,0 -7.149,-0.793 -7.149,-3.645 0,-3.023 5.563,-12.226 10.484,-20.488 l 7.141,-11.75 11.438,16.672 c 3.652,5.242 6.347,11.273 6.347,14.129 0,3.179 -4.125,5.082 -7.144,5.082 h -2.219 v 4.605 h 33.816 v -4.605 h -1.269 c -4.922,0 -12.067,-4.758 -17.465,-12.543 l -20.168,-29.375 19.691,-32.703 c 14.446,-23.977 18.739,-29.219 26.672,-29.219 h 1.746 v -4.606 h -59.382 v 4.606 h 2.382 c 3.336,0 7.782,0.793 7.782,4.129 0,3.652 -6.196,13.652 -11.75,22.707 l -9.528,15.555 -8.73,-12.7 c -6.195,-9.215 -13.656,-19.847 -13.656,-23.812 0,-4.922 3.332,-5.719 7.304,-5.879 h 2.375 v -4.606 H 763.68 v 4.606 h 1.91 c 6.031,0 13.019,8.73 17.305,14.766 l 23.339,33.027 -20.8,34.297 c -3.172,5.398 -6.508,11.273 -10,16.355 -3.18,4.602 -3.496,5.395 -7.938,5.395 h -2.863 v 4.605" /><path
         id="path20"
         style="fill:none;stroke:#244ba6;stroke-width:3.5999999;stroke-linecap:butt;stroke-linejoin:miter;stroke-miterlimit:4;stroke-dasharray:none;stroke-opacity:1"
         d="m 764.633,595.117 h 56.051 v -4.605 h -2.539 c -2.864,0 -7.149,-0.793 -7.149,-3.645 0,-3.023 5.563,-12.226 10.484,-20.488 l 7.141,-11.75 11.438,16.672 c 3.652,5.242 6.347,11.273 6.347,14.129 0,3.179 -4.125,5.082 -7.144,5.082 h -2.219 v 4.605 h 33.816 v -4.605 h -1.269 c -4.922,0 -12.067,-4.758 -17.465,-12.543 l -20.168,-29.375 19.691,-32.703 c 14.446,-23.977 18.739,-29.219 26.672,-29.219 h 1.746 v -4.606 h -59.382 v 4.606 h 2.382 c 3.336,0 7.782,0.793 7.782,4.129 0,3.652 -6.196,13.652 -11.75,22.707 l -9.528,15.555 -8.73,-12.7 c -6.195,-9.215 -13.656,-19.847 -13.656,-23.812 0,-4.922 3.332,-5.719 7.304,-5.879 h 2.375 v -4.606 H 763.68 v 4.606 h 1.91 c 6.031,0 13.019,8.73 17.305,14.766 l 23.339,33.027 -20.8,34.297 c -3.172,5.398 -6.508,11.273 -10,16.355 -3.18,4.602 -3.496,5.395 -7.938,5.395 h -2.863 z" /><path
         id="path22"
         style="fill:#244ba6;fill-opacity:1;fill-rule:nonzero;stroke:none"
         d="m 893.086,486.672 h 2.383 c 8.89,0 8.89,2.226 8.89,20.801 v 62.238 c 0,18.582 0,20.801 -8.89,20.801 h -2.383 v 4.605 h 87.644 v -27.148 h -6.984 c -2.703,18.097 -10.641,21.594 -27.629,21.594 h -12.226 v -48.274 h 10.004 c 10.796,0 18.894,1.27 20.324,17.629 h 5.719 v -40.813 h -5.879 c -1.11,15.247 -9.368,17.629 -20.164,17.629 h -10.004 v -28.261 c 0,-18.575 0,-20.801 8.89,-20.801 h 2.387 v -4.606 h -52.082 v 4.606" /><path
         id="path24"
         style="fill:none;stroke:#244ba6;stroke-width:3.5999999;stroke-linecap:butt;stroke-linejoin:miter;stroke-miterlimit:4;stroke-dasharray:none;stroke-opacity:1"
         d="m 893.086,486.672 h 2.383 c 8.89,0 8.89,2.226 8.89,20.801 v 62.238 c 0,18.582 0,20.801 -8.89,20.801 h -2.383 v 4.605 h 87.644 v -27.148 h -6.984 c -2.703,18.097 -10.641,21.594 -27.629,21.594 h -12.226 v -48.274 h 10.004 c 10.796,0 18.894,1.27 20.324,17.629 h 5.719 v -40.813 h -5.879 c -1.11,15.247 -9.368,17.629 -20.164,17.629 h -10.004 v -28.261 c 0,-18.575 0,-20.801 8.89,-20.801 h 2.387 v -4.606 h -52.082 z" /><path
         id="path26"
         style="fill:#244ba6;fill-opacity:1;fill-rule:nonzero;stroke:none"
         d="m 999.762,538.594 c 0,33.5 16.508,59.062 52.238,59.062 35.72,0 52.24,-25.562 52.24,-59.062 0,-33.504 -16.52,-59.071 -52.24,-59.071 -35.73,0 -52.238,25.567 -52.238,59.071 z m 73.518,0 c 0,25.879 0,54.465 -21.28,54.465 -21.28,0 -21.28,-28.586 -21.28,-54.465 0,-25.883 0,-54.461 21.28,-54.461 21.28,0 21.28,28.578 21.28,54.461" /><path
         id="path28"
         style="fill:none;stroke:#244ba6;stroke-width:3.5999999;stroke-linecap:butt;stroke-linejoin:miter;stroke-miterlimit:4;stroke-dasharray:none;stroke-opacity:1"
         d="m 999.762,538.594 c 0,33.5 16.508,59.062 52.238,59.062 35.72,0 52.24,-25.562 52.24,-59.062 0,-33.504 -16.52,-59.071 -52.24,-59.071 -35.73,0 -52.238,25.567 -52.238,59.071 z m 73.518,0 c 0,25.879 0,54.465 -21.28,54.465 -21.28,0 -21.28,-28.586 -21.28,-54.465 0,-25.883 0,-54.461 21.28,-54.461 21.28,0 21.28,28.578 21.28,54.461 z" /><path
         id="path30"
         style="fill:#244ba6;fill-opacity:1;fill-rule:nonzero;stroke:none"
         d="m 1123.28,486.672 h 2.38 c 8.89,0 8.89,2.226 8.89,20.801 v 62.238 c 0,18.582 0,20.801 -8.89,20.801 h -2.38 v 4.605 h 52.4 c 14.45,0 45.41,-0.633 45.41,-27.469 0,-13.972 -13.34,-23.183 -25.88,-25.562 v -0.316 c 24.45,-1.907 25.88,-19.055 25.88,-36.524 v -6.668 c 0,-7.297 0.32,-11.586 3.97,-11.586 2.07,0 4.92,3.176 7.46,6.348 l 3.82,-2.86 c -6.2,-7.941 -12.71,-10.957 -22.55,-10.957 -18.74,0 -22.23,17.313 -22.23,32.872 0,17.937 -0.95,25.242 -13.97,25.242 h -13.5 v -30.164 c 0,-18.575 0,-20.801 8.89,-20.801 h 2.38 v -4.606 h -52.08 z m 40.81,56.523 h 4.76 c 15.72,0 22.71,4.129 22.71,23.028 0,18.574 -6.83,23.34 -22.71,23.34 h -4.76 v -46.368" /><path
         id="path32"
         style="fill:none;stroke:#244ba6;stroke-width:3.5999999;stroke-linecap:butt;stroke-linejoin:miter;stroke-miterlimit:4;stroke-dasharray:none;stroke-opacity:1"
         d="m 1123.28,486.672 h 2.38 c 8.89,0 8.89,2.226 8.89,20.801 v 62.238 c 0,18.582 0,20.801 -8.89,20.801 h -2.38 v 4.605 h 52.4 c 14.45,0 45.41,-0.633 45.41,-27.469 0,-13.972 -13.34,-23.183 -25.88,-25.562 v -0.316 c 24.45,-1.907 25.88,-19.055 25.88,-36.524 v -6.668 c 0,-7.297 0.32,-11.586 3.97,-11.586 2.07,0 4.92,3.176 7.46,6.348 l 3.82,-2.86 c -6.2,-7.941 -12.71,-10.957 -22.55,-10.957 -18.74,0 -22.23,17.313 -22.23,32.872 0,17.937 -0.95,25.242 -13.97,25.242 h -13.5 v -30.164 c 0,-18.575 0,-20.801 8.89,-20.801 h 2.38 v -4.606 h -52.08 z m 40.81,56.523 h 4.76 c 15.72,0 22.71,4.129 22.71,23.028 0,18.574 -6.83,23.34 -22.71,23.34 h -4.76 z" /><path
         id="path34"
         style="fill:#244ba6;fill-opacity:1;fill-rule:nonzero;stroke:none"
         d="m 1251.7,486.672 h 2.39 c 8.89,0 8.89,2.226 8.89,20.801 v 62.238 c 0,18.582 0,20.801 -8.89,20.801 h -2.39 v 4.605 h 59.23 c 28.74,0 50.17,-20.008 50.17,-56.523 0,-36.524 -21.43,-56.528 -50.17,-56.528 h -59.23 z m 40.81,0.957 h 11.28 c 21.43,0 26.35,19.844 26.35,50.965 0,31.117 -4.92,50.969 -26.35,50.969 h -11.28 V 487.629" /><path
         id="path36"
         style="fill:none;stroke:#244ba6;stroke-width:3.5999999;stroke-linecap:butt;stroke-linejoin:miter;stroke-miterlimit:4;stroke-dasharray:none;stroke-opacity:1"
         d="m 1251.7,486.672 h 2.39 c 8.89,0 8.89,2.226 8.89,20.801 v 62.238 c 0,18.582 0,20.801 -8.89,20.801 h -2.39 v 4.605 h 59.23 c 28.74,0 50.17,-20.008 50.17,-56.523 0,-36.524 -21.43,-56.528 -50.17,-56.528 h -59.23 z m 40.81,0.957 h 11.28 c 21.43,0 26.35,19.844 26.35,50.965 0,31.117 -4.92,50.969 -26.35,50.969 h -11.28 z" /><path
         id="path38"
         style="fill:#244ba6;fill-opacity:1;fill-rule:nonzero;stroke:none"
         d="m 885.289,383.008 c -2.863,13.82 -10.801,27.629 -26.519,27.629 -19.848,0 -24.926,-24.293 -24.926,-55.891 0,-15.562 0.633,-51.121 24.609,-51.121 16.985,0 25.242,13.496 26.992,28.574 h 6.985 v -33.183 h -6.668 c -0.637,1.425 -2.223,2.859 -3.969,2.859 -3.809,0 -13.66,-3.812 -24.137,-3.812 -36.519,0 -54.777,24.613 -54.777,59.859 0,34.141 18.418,58.269 53.984,58.269 13.496,0 22.864,-4.921 25.407,-4.597 1.906,0.156 4.125,1.582 4.125,3.652 H 891 v -32.238 h -5.711" /><path
         id="path40"
         style="fill:none;stroke:#244ba6;stroke-width:3.5999999;stroke-linecap:butt;stroke-linejoin:miter;stroke-miterlimit:4;stroke-dasharray:none;stroke-opacity:1"
         d="m 885.289,383.008 c -2.863,13.82 -10.801,27.629 -26.519,27.629 -19.848,0 -24.926,-24.293 -24.926,-55.891 0,-15.562 0.633,-51.121 24.609,-51.121 16.985,0 25.242,13.496 26.992,28.574 h 6.985 v -33.183 h -6.668 c -0.637,1.425 -2.223,2.859 -3.969,2.859 -3.809,0 -13.66,-3.812 -24.137,-3.812 -36.519,0 -54.777,24.613 -54.777,59.859 0,34.141 18.418,58.269 53.984,58.269 13.496,0 22.864,-4.921 25.407,-4.597 1.906,0.156 4.125,1.582 4.125,3.652 H 891 v -32.238 z" /><path
         id="path42"
         style="fill:#244ba6;fill-opacity:1;fill-rule:nonzero;stroke:none"
         d="m 914.5,305.207 h 2.383 c 8.894,0 8.894,2.227 8.894,20.801 v 62.246 c 0,18.574 0,20.793 -8.894,20.793 H 914.5 v 4.605 h 52.082 v -4.605 h -2.383 c -8.89,0 -8.89,-2.219 -8.89,-20.793 v -62.246 c 0,-18.574 0,-20.801 8.89,-20.801 h 2.383 v -4.602 H 914.5 v 4.602" /><path
         id="path44"
         style="fill:none;stroke:#244ba6;stroke-width:3.5999999;stroke-linecap:butt;stroke-linejoin:miter;stroke-miterlimit:4;stroke-dasharray:none;stroke-opacity:1"
         d="m 914.5,305.207 h 2.383 c 8.894,0 8.894,2.227 8.894,20.801 v 62.246 c 0,18.574 0,20.793 -8.894,20.793 H 914.5 v 4.605 h 52.082 v -4.605 h -2.383 c -8.89,0 -8.89,-2.219 -8.89,-20.793 v -62.246 c 0,-18.574 0,-20.801 8.89,-20.801 h 2.383 v -4.602 H 914.5 Z" /><path
         id="path46"
         style="fill:#244ba6;fill-opacity:1;fill-rule:nonzero;stroke:none"
         d="m 984.836,413.652 h 103.844 v -30.644 h -6.98 c -1.75,13.82 -8.11,25.09 -23.19,25.09 h -6.99 v -82.09 c 0,-18.574 0,-20.801 8.89,-20.801 h 2.39 v -4.602 h -52.08 v 4.602 h 2.37 c 8.9,0 8.9,2.227 8.9,20.801 v 82.09 H 1015 c -13.49,0 -21.75,-9.211 -23.18,-25.09 h -6.984 v 30.644" /><path
         id="path48"
         style="fill:none;stroke:#244ba6;stroke-width:3.5999999;stroke-linecap:butt;stroke-linejoin:miter;stroke-miterlimit:4;stroke-dasharray:none;stroke-opacity:1"
         d="m 984.836,413.652 h 103.844 v -30.644 h -6.98 c -1.75,13.82 -8.11,25.09 -23.19,25.09 h -6.99 v -82.09 c 0,-18.574 0,-20.801 8.89,-20.801 h 2.39 v -4.602 h -52.08 v 4.602 h 2.37 c 8.9,0 8.9,2.227 8.9,20.801 v 82.09 H 1015 c -13.49,0 -21.75,-9.211 -23.18,-25.09 h -6.984 z" /><path
         id="path50"
         style="fill:#244ba6;fill-opacity:1;fill-rule:nonzero;stroke:none"
         d="m 1131.05,300.605 v 4.602 h 2.7 c 4.92,0 8.73,0.957 8.73,7.305 v 31.121 l -24.45,49.855 c -6.51,13.34 -11.12,15.559 -15.88,15.559 h -1.74 v 4.605 h 57.95 v -4.605 h -2.22 c -4.13,0 -9.05,-0.793 -9.05,-5.238 0,-3.016 0.95,-4.922 3.65,-10.633 l 18.74,-38.75 14.45,29.851 c 5.23,10.801 6.19,14.133 6.19,17.309 0,6.195 -3.18,7.461 -8.26,7.461 h -3.17 v 4.605 h 33.81 v -4.605 h -1.74 c -5.08,0 -8.73,-4.602 -13.34,-13.656 l -25.4,-49.852 v -34.617 c 0,-4.922 3.02,-5.715 8.89,-5.715 h 3.17 v -4.602 h -53.03" /><path
         id="path52"
         style="fill:none;stroke:#244ba6;stroke-width:3.5999999;stroke-linecap:butt;stroke-linejoin:miter;stroke-miterlimit:4;stroke-dasharray:none;stroke-opacity:1"
         d="m 1131.05,300.605 v 4.602 h 2.7 c 4.92,0 8.73,0.957 8.73,7.305 v 31.121 l -24.45,49.855 c -6.51,13.34 -11.12,15.559 -15.88,15.559 h -1.74 v 4.605 h 57.95 v -4.605 h -2.22 c -4.13,0 -9.05,-0.793 -9.05,-5.238 0,-3.016 0.95,-4.922 3.65,-10.633 l 18.74,-38.75 14.45,29.851 c 5.23,10.801 6.19,14.133 6.19,17.309 0,6.195 -3.18,7.461 -8.26,7.461 h -3.17 v 4.605 h 33.81 v -4.605 h -1.74 c -5.08,0 -8.73,-4.602 -13.34,-13.656 l -25.4,-49.852 v -34.617 c 0,-4.922 3.02,-5.715 8.89,-5.715 h 3.17 v -4.602 z" /><path
         id="path54"
         style="fill:#244ba6;fill-opacity:1;fill-rule:nonzero;stroke:none"
         d="m 726.52,195.664 c -2.653,12.824 -10.028,25.656 -24.625,25.656 -18.43,0 -23.149,-22.558 -23.149,-51.906 0,-14.449 0.59,-47.473 22.856,-47.473 15.777,0 23.441,12.532 25.066,26.536 h 6.484 v -30.809 h -6.191 c -0.59,1.328 -2.063,2.652 -3.684,2.652 -3.543,0 -12.683,-3.543 -22.414,-3.543 -33.91,0 -50.867,22.852 -50.867,55.586 0,31.7 17.102,54.114 50.129,54.114 12.535,0 21.238,-4.571 23.59,-4.274 1.773,0.145 3.832,1.469 3.832,3.395 h 4.277 v -29.934 h -5.304" /><path
         id="path56"
         style="fill:none;stroke:#244ba6;stroke-width:3.5999999;stroke-linecap:butt;stroke-linejoin:miter;stroke-miterlimit:4;stroke-dasharray:none;stroke-opacity:1"
         d="m 726.52,195.664 c -2.653,12.824 -10.028,25.656 -24.625,25.656 -18.43,0 -23.149,-22.558 -23.149,-51.906 0,-14.449 0.59,-47.473 22.856,-47.473 15.777,0 23.441,12.532 25.066,26.536 h 6.484 v -30.809 h -6.191 c -0.59,1.328 -2.063,2.652 -3.684,2.652 -3.543,0 -12.683,-3.543 -22.414,-3.543 -33.91,0 -50.867,22.852 -50.867,55.586 0,31.7 17.102,54.114 50.129,54.114 12.535,0 21.238,-4.571 23.59,-4.274 1.773,0.145 3.832,1.469 3.832,3.395 h 4.277 v -29.934 z" /><path
         id="path58"
         style="fill:#244ba6;fill-opacity:1;fill-rule:nonzero;stroke:none"
         d="m 753.941,171.633 c 0,31.101 15.332,54.844 48.508,54.844 33.176,0 48.508,-23.743 48.508,-54.844 0,-31.113 -15.332,-54.856 -48.508,-54.856 -33.176,0 -48.508,23.743 -48.508,54.856 z m 68.266,0 c 0,24.031 0,50.57 -19.758,50.57 -19.758,0 -19.758,-26.539 -19.758,-50.57 0,-24.035 0,-50.578 19.758,-50.578 19.758,0 19.758,26.543 19.758,50.578" /><path
         id="path60"
         style="fill:none;stroke:#244ba6;stroke-width:3.5999999;stroke-linecap:butt;stroke-linejoin:miter;stroke-miterlimit:4;stroke-dasharray:none;stroke-opacity:1"
         d="m 753.941,171.633 c 0,31.101 15.332,54.844 48.508,54.844 33.176,0 48.508,-23.743 48.508,-54.844 0,-31.113 -15.332,-54.856 -48.508,-54.856 -33.176,0 -48.508,23.743 -48.508,54.856 z m 68.266,0 c 0,24.031 0,50.57 -19.758,50.57 -19.758,0 -19.758,-26.539 -19.758,-50.57 0,-24.035 0,-50.578 19.758,-50.578 19.758,0 19.758,26.543 19.758,50.578 z" /><path
         id="path62"
         style="fill:#244ba6;fill-opacity:1;fill-rule:nonzero;stroke:none"
         d="m 970.523,219.844 c -9.433,0 -11.207,-2.211 -11.207,-24.031 v -36.868 c 0,-28.601 -14.156,-42.168 -41.871,-42.168 -24.625,0 -39.078,14.453 -39.078,34.504 v 48.657 c 0,16.367 0,19.906 -10.613,19.906 v 4.277 h 48.656 v -4.277 c -8.695,0 -10.613,-0.742 -10.613,-9.434 v -62.371 c 0,-11.359 3.539,-23.449 22.266,-23.449 20.636,0 24.769,19.613 24.769,34.953 v 30.371 c 0,29.488 -2.359,29.93 -12.242,29.93 v 4.277 h 29.933 v -4.277" /><path
         id="path64"
         style="fill:none;stroke:#244ba6;stroke-width:3.5999999;stroke-linecap:butt;stroke-linejoin:miter;stroke-miterlimit:4;stroke-dasharray:none;stroke-opacity:1"
         d="m 970.523,219.844 c -9.433,0 -11.207,-2.211 -11.207,-24.031 v -36.868 c 0,-28.601 -14.156,-42.168 -41.871,-42.168 -24.625,0 -39.078,14.453 -39.078,34.504 v 48.657 c 0,16.367 0,19.906 -10.613,19.906 v 4.277 h 48.656 v -4.277 c -8.695,0 -10.613,-0.742 -10.613,-9.434 v -62.371 c 0,-11.359 3.539,-23.449 22.266,-23.449 20.636,0 24.769,19.613 24.769,34.953 v 30.371 c 0,29.488 -2.359,29.93 -12.242,29.93 v 4.277 h 29.933 z" /><path
         id="path66"
         style="fill:#244ba6;fill-opacity:1;fill-rule:nonzero;stroke:none"
         d="m 985.406,123.414 c 10.176,0 10.321,11.945 10.321,18.871 v 58.242 c 0,17.254 0,19.317 -8.258,19.317 h -2.211 v 4.277 h 37.892 c 6.64,-13.125 15.04,-25.359 23.01,-37.75 l 24.03,-37.297 h -0.15 0.3 v 51.895 c 0,6.933 -0.15,18.875 -10.32,18.875 h -1.92 v 4.277 h 29.04 v -4.277 c -10.17,0 -10.32,-11.942 -10.32,-18.875 v -83.008 h -18.43 l -55.88,85.516 h -0.3 v -61.192 c 0,-6.926 0.15,-18.871 10.33,-18.871 h 1.91 v -4.273 h -29.044 v 4.273" /><path
         id="path68"
         style="fill:none;stroke:#244ba6;stroke-width:3.5999999;stroke-linecap:butt;stroke-linejoin:miter;stroke-miterlimit:4;stroke-dasharray:none;stroke-opacity:1"
         d="m 985.406,123.414 c 10.176,0 10.321,11.945 10.321,18.871 v 58.242 c 0,17.254 0,19.317 -8.258,19.317 h -2.211 v 4.277 h 37.892 c 6.64,-13.125 15.04,-25.359 23.01,-37.75 l 24.03,-37.297 h -0.15 0.3 v 51.895 c 0,6.933 -0.15,18.875 -10.32,18.875 h -1.92 v 4.277 h 29.04 v -4.277 c -10.17,0 -10.32,-11.942 -10.32,-18.875 v -83.008 h -18.43 l -55.88,85.516 h -0.3 v -61.192 c 0,-6.926 0.15,-18.871 10.33,-18.871 h 1.91 v -4.273 h -29.044 z" /><path
         id="path70"
         style="fill:#244ba6;fill-opacity:1;fill-rule:nonzero;stroke:none"
         d="m 1182.23,195.664 c -2.64,12.824 -10.02,25.656 -24.62,25.656 -18.43,0 -23.14,-22.558 -23.14,-51.906 0,-14.449 0.58,-47.473 22.85,-47.473 15.77,0 23.45,12.532 25.07,26.536 h 6.48 v -30.809 h -6.19 c -0.59,1.328 -2.07,2.652 -3.69,2.652 -3.54,0 -12.68,-3.543 -22.41,-3.543 -33.91,0 -50.87,22.852 -50.87,55.586 0,31.7 17.11,54.114 50.13,54.114 12.54,0 21.23,-4.571 23.6,-4.274 1.77,0.145 3.83,1.469 3.83,3.395 h 4.27 v -29.934 h -5.31" /><path
         id="path72"
         style="fill:none;stroke:#244ba6;stroke-width:3.5999999;stroke-linecap:butt;stroke-linejoin:miter;stroke-miterlimit:4;stroke-dasharray:none;stroke-opacity:1"
         d="m 1182.23,195.664 c -2.64,12.824 -10.02,25.656 -24.62,25.656 -18.43,0 -23.14,-22.558 -23.14,-51.906 0,-14.449 0.58,-47.473 22.85,-47.473 15.77,0 23.45,12.532 25.07,26.536 h 6.48 v -30.809 h -6.19 c -0.59,1.328 -2.07,2.652 -3.69,2.652 -3.54,0 -12.68,-3.543 -22.41,-3.543 -33.91,0 -50.87,22.852 -50.87,55.586 0,31.7 17.11,54.114 50.13,54.114 12.54,0 21.23,-4.571 23.6,-4.274 1.77,0.145 3.83,1.469 3.83,3.395 h 4.27 v -29.934 z" /><path
         id="path74"
         style="fill:#244ba6;fill-opacity:1;fill-rule:nonzero;stroke:none"
         d="m 1209.36,123.414 h 2.22 c 8.26,0 8.26,2.066 8.26,19.313 v 57.8 c 0,17.254 0,19.317 -8.26,19.317 h -2.22 v 4.277 h 48.36 v -4.277 h -2.21 c -8.25,0 -8.25,-2.063 -8.25,-19.317 v -57.8 c 0,-17.247 0,-19.313 8.25,-19.313 h 2.21 v -4.273 h -48.36 v 4.273" /><path
         id="path76"
         style="fill:none;stroke:#244ba6;stroke-width:3.5999999;stroke-linecap:butt;stroke-linejoin:miter;stroke-miterlimit:4;stroke-dasharray:none;stroke-opacity:1"
         d="m 1209.36,123.414 h 2.22 c 8.26,0 8.26,2.066 8.26,19.313 v 57.8 c 0,17.254 0,19.317 -8.26,19.317 h -2.22 v 4.277 h 48.36 v -4.277 h -2.21 c -8.25,0 -8.25,-2.063 -8.25,-19.317 v -57.8 c 0,-17.247 0,-19.313 8.25,-19.313 h 2.21 v -4.273 h -48.36 z" /><path
         id="path78"
         style="fill:#244ba6;fill-opacity:1;fill-rule:nonzero;stroke:none"
         d="m 1275.86,123.414 h 2.21 c 8.25,0 8.25,2.066 8.25,19.313 v 57.8 c 0,17.254 0,19.317 -8.25,19.317 h -2.21 v 4.277 h 48.35 v -4.277 H 1322 c -8.25,0 -8.25,-2.063 -8.25,-19.317 v -76.23 h 13.12 c 16.37,0 26.69,5.754 27.13,23.301 h 6.49 v -28.457 h -84.63 v 4.273" /><path
         id="path80"
         style="fill:none;stroke:#244ba6;stroke-width:3.5999999;stroke-linecap:butt;stroke-linejoin:miter;stroke-miterlimit:4;stroke-dasharray:none;stroke-opacity:1"
         d="m 1275.86,123.414 h 2.21 c 8.25,0 8.25,2.066 8.25,19.313 v 57.8 c 0,17.254 0,19.317 -8.25,19.317 h -2.21 v 4.277 h 48.35 v -4.277 H 1322 c -8.25,0 -8.25,-2.063 -8.25,-19.317 v -76.23 h 13.12 c 16.37,0 26.69,5.754 27.13,23.301 h 6.49 v -28.457 h -84.63 z" /><path
         id="path82"
         style="fill:#244ba6;fill-opacity:1;fill-rule:nonzero;stroke:none"
         d="m 786.289,843.559 c 6.602,3.601 26.41,15.574 45.156,14.703 18.207,-0.848 37.578,-16.426 51.309,-27.68 l 3.375,-2.699 c 14.629,-11.477 20.703,-15.977 29.027,-15.977 5.43,0 17.692,6.492 22.282,9.453 l 9.898,5.625 c 13.383,7.426 25.355,12.918 40.965,19.793 9.219,4.059 24.899,8.442 30.139,8.332 14.84,-0.304 26.11,-6.972 49.28,-26.328 l 4.28,-3.601 c 19.13,-14.848 28.06,-16.887 32.33,-16.438 6.45,0.672 20.4,9.571 28.28,14.735 3.6,2.363 20.39,13.644 25.13,16.328 24.98,14.179 37.58,15.976 46.81,15.527 5.39,-0.262 9.44,-1.57 18.67,-7.195 11.71,-7.141 21.78,-14.746 24.53,-16.653 2.75,-1.91 16.88,-13.281 16.88,-13.281 3.83,-3.223 13.57,-11.601 18.23,-16.328 v -57.039 c -14.11,12.82 -32.11,28.125 -35.03,30.598 -2.93,2.476 -8.33,6.304 -8.33,6.304 -13.05,9.903 -23.4,16.203 -32.86,17.325 -4.04,0.484 -17.32,0.449 -27.23,-3.372 -19.62,-7.586 -29.47,-15.757 -29.47,-15.757 0,0 -37.13,-24.746 -51.76,-26.774 -1.5,-0.211 -7.65,0.375 -14.25,4.574 -7.04,4.477 -31.21,23.704 -31.21,23.704 -22.8,17.097 -30.45,18.953 -35.63,19.667 -6.52,0.899 -12.82,0.223 -25.875,-4.726 -3.336,-1.266 -22.02,-10.859 -23.629,-11.25 l -14.398,-8.555 c -4.176,-2.617 -18.79,-11.758 -24.083,-14.176 -7.875,-3.597 -15.062,-6.441 -27.449,-1.8 -5.402,2.031 -20.644,13.797 -23.629,16.425 -3.828,3.379 -14.179,12.637 -19.582,16.653 -15.41,11.48 -26.511,12.867 -28.652,12.976 -3.285,0.176 -10.199,1.504 -40.203,-14.394 l -6,-3.906 c -39.902,-25.801 -56.047,-43.801 -58.809,-46.207 v 58.285 c 21,17.629 43.207,32.031 45.61,33.527 2.398,1.504 11.297,7.094 15.898,9.602" /><path
         id="path84"
         style="fill:none;stroke:#244ba6;stroke-width:3.5999999;stroke-linecap:butt;stroke-linejoin:miter;stroke-miterlimit:4;stroke-dasharray:none;stroke-opacity:1"
         d="m 786.289,843.559 c 6.602,3.601 26.41,15.574 45.156,14.703 18.207,-0.848 37.578,-16.426 51.309,-27.68 l 3.375,-2.699 c 14.629,-11.477 20.703,-15.977 29.027,-15.977 5.43,0 17.692,6.492 22.282,9.453 l 9.898,5.625 c 13.383,7.426 25.355,12.918 40.965,19.793 9.219,4.059 24.899,8.442 30.139,8.332 14.84,-0.304 26.11,-6.972 49.28,-26.328 l 4.28,-3.601 c 19.13,-14.848 28.06,-16.887 32.33,-16.438 6.45,0.672 20.4,9.571 28.28,14.735 3.6,2.363 20.39,13.644 25.13,16.328 24.98,14.179 37.58,15.976 46.81,15.527 5.39,-0.262 9.44,-1.57 18.67,-7.195 11.71,-7.141 21.78,-14.746 24.53,-16.653 2.75,-1.91 16.88,-13.281 16.88,-13.281 3.83,-3.223 13.57,-11.601 18.23,-16.328 v -57.039 c -14.11,12.82 -32.11,28.125 -35.03,30.598 -2.93,2.476 -8.33,6.304 -8.33,6.304 -13.05,9.903 -23.4,16.203 -32.86,17.325 -4.04,0.484 -17.32,0.449 -27.23,-3.372 -19.62,-7.586 -29.47,-15.757 -29.47,-15.757 0,0 -37.13,-24.746 -51.76,-26.774 -1.5,-0.211 -7.65,0.375 -14.25,4.574 -7.04,4.477 -31.21,23.704 -31.21,23.704 -22.8,17.097 -30.45,18.953 -35.63,19.667 -6.52,0.899 -12.82,0.223 -25.875,-4.726 -3.336,-1.266 -22.02,-10.859 -23.629,-11.25 l -14.398,-8.555 c -4.176,-2.617 -18.79,-11.758 -24.083,-14.176 -7.875,-3.597 -15.062,-6.441 -27.449,-1.8 -5.402,2.031 -20.644,13.797 -23.629,16.425 -3.828,3.379 -14.179,12.637 -19.582,16.653 -15.41,11.48 -26.511,12.867 -28.652,12.976 -3.285,0.176 -10.199,1.504 -40.203,-14.394 l -6,-3.906 c -39.902,-25.801 -56.047,-43.801 -58.809,-46.207 v 58.285 c 21,17.629 43.207,32.031 45.61,33.527 2.398,1.504 11.297,7.094 15.898,9.602 z" /><path
         id="path86"
         style="fill:#244ba6;fill-opacity:1;fill-rule:nonzero;stroke:none"
         d="m 724.441,701.516 c 2.766,2.402 18.907,20.398 58.809,46.203 l 6.004,3.902 c 30.004,15.899 36.914,14.57 40.203,14.406 2.141,-0.117 13.238,-1.504 28.652,-12.98 5.403,-4.024 15.754,-13.281 19.582,-16.649 2.981,-2.636 18.227,-14.406 23.625,-16.433 12.391,-4.641 19.579,-1.801 27.454,1.805 5.293,2.414 19.906,11.554 24.082,14.179 l 14.398,8.543 c 1.605,0.391 20.293,9.992 23.629,11.254 13.051,4.949 19.351,5.625 25.881,4.723 5.17,-0.711 12.83,-2.559 35.63,-19.668 0,0 24.16,-19.219 31.2,-23.699 6.6,-4.2 12.76,-4.786 14.25,-4.571 14.63,2.02 51.76,26.778 51.76,26.778 0,0 9.85,8.164 29.48,15.75 9.9,3.824 23.18,3.859 27.23,3.375 9.45,-1.129 19.8,-7.426 32.85,-17.329 0,0 7.38,-5.871 10.24,-8.425 4.39,-3.918 21.6,-18.86 33.46,-32.629 V 641.32 c -18.16,17.098 -30.76,26.551 -33.23,28.801 l -5.86,5.176 c -25.88,21.609 -32.17,23.18 -42.3,22.957 -4.5,-0.098 -18.9,-2.481 -32.63,-10.352 l -19.8,-11.476 c 0,0 -35.11,-22.281 -48.61,-23.633 -15.15,-1.512 -38.25,17.105 -46.36,23.633 -5.75,4.629 -13.27,10.578 -13.27,10.578 -10.58,8.543 -19.14,12.559 -24.31,13.269 -6.52,0.903 -12.82,0.227 -25.877,-4.726 -3.332,-1.258 -22.019,-10.859 -23.625,-11.25 l -14.402,-8.543 c -4.168,-2.629 -18.789,-11.766 -24.082,-14.18 -7.871,-3.605 -15.063,-6.445 -27.449,-1.804 -5.403,2.027 -20.645,13.796 -23.629,16.433 -3.828,3.367 -14.18,12.625 -19.574,16.649 -15.414,11.476 -26.52,12.863 -28.657,12.98 -3.293,0.164 -10.203,1.492 -40.207,-14.406 l -6,-3.899 C 743.086,661.719 726.949,643.723 724.18,641.32 l 0.261,60.196" /><path
         id="path88"
         style="fill:none;stroke:#244ba6;stroke-width:3.5999999;stroke-linecap:butt;stroke-linejoin:miter;stroke-miterlimit:4;stroke-dasharray:none;stroke-opacity:1"
         d="m 724.441,701.516 c 2.766,2.402 18.907,20.398 58.809,46.203 l 6.004,3.902 c 30.004,15.899 36.914,14.57 40.203,14.406 2.141,-0.117 13.238,-1.504 28.652,-12.98 5.403,-4.024 15.754,-13.281 19.582,-16.649 2.981,-2.636 18.227,-14.406 23.625,-16.433 12.391,-4.641 19.579,-1.801 27.454,1.805 5.293,2.414 19.906,11.554 24.082,14.179 l 14.398,8.543 c 1.605,0.391 20.293,9.992 23.629,11.254 13.051,4.949 19.351,5.625 25.881,4.723 5.17,-0.711 12.83,-2.559 35.63,-19.668 0,0 24.16,-19.219 31.2,-23.699 6.6,-4.2 12.76,-4.786 14.25,-4.571 14.63,2.02 51.76,26.778 51.76,26.778 0,0 9.85,8.164 29.48,15.75 9.9,3.824 23.18,3.859 27.23,3.375 9.45,-1.129 19.8,-7.426 32.85,-17.329 0,0 7.38,-5.871 10.24,-8.425 4.39,-3.918 21.6,-18.86 33.46,-32.629 V 641.32 c -18.16,17.098 -30.76,26.551 -33.23,28.801 l -5.86,5.176 c -25.88,21.609 -32.17,23.18 -42.3,22.957 -4.5,-0.098 -18.9,-2.481 -32.63,-10.352 l -19.8,-11.476 c 0,0 -35.11,-22.281 -48.61,-23.633 -15.15,-1.512 -38.25,17.105 -46.36,23.633 -5.75,4.629 -13.27,10.578 -13.27,10.578 -10.58,8.543 -19.14,12.559 -24.31,13.269 -6.52,0.903 -12.82,0.227 -25.877,-4.726 -3.332,-1.258 -22.019,-10.859 -23.625,-11.25 l -14.402,-8.543 c -4.168,-2.629 -18.789,-11.766 -24.082,-14.18 -7.871,-3.605 -15.063,-6.445 -27.449,-1.804 -5.403,2.027 -20.645,13.796 -23.629,16.433 -3.828,3.367 -14.18,12.625 -19.574,16.649 -15.414,11.476 -26.52,12.863 -28.657,12.98 -3.293,0.164 -10.203,1.492 -40.207,-14.406 l -6,-3.899 C 743.086,661.719 726.949,643.723 724.18,641.32 Z" /><path
         id="path90"
         style="fill:#244ba6;fill-opacity:1;fill-rule:nonzero;stroke:none"
         d="m 827.789,1235.36 c 5.805,0.03 14.219,-0.47 19.008,-1.73 -0.391,-0.3 -0.43,-1.36 -0.863,-1.72 -2.176,-1.77 -4.754,-2.97 -6.914,-4.75 -0.348,-0.27 -0.852,-1.57 -1.297,-1.73 h -0.864 c -0.457,-0.38 -1.187,-1.97 -1.726,-2.16 h -0.867 c -1.231,-1.01 -1.903,-2.78 -3.02,-3.89 -1.004,-0.97 -2.676,-1.42 -3.457,-2.59 -0.84,-1.22 -1.836,-3.84 -2.164,-5.19 -0.391,-1.58 0.168,-2.97 -0.43,-4.31 -0.375,-0.82 -4.281,-4.32 -5.187,-5.19 -0.227,0.17 -1.606,0.4 -1.727,0.43 -0.121,0.85 -0.582,6.64 -0.863,7.35 -0.324,0.78 -1.945,0.82 -2.594,1.29 -2.051,1.5 -4.844,4.7 -6.047,6.92 -1.984,3.6 -1.203,5.64 0.434,8.63 3.305,6.13 9.367,8.62 18.578,8.64" /><path
         id="path92"
         style="fill:none;stroke:#244ba6;stroke-width:3.5999999;stroke-linecap:butt;stroke-linejoin:miter;stroke-miterlimit:4;stroke-dasharray:none;stroke-opacity:1"
         d="m 827.789,1235.36 c 5.805,0.03 14.219,-0.47 19.008,-1.73 -0.391,-0.3 -0.43,-1.36 -0.863,-1.72 -2.176,-1.77 -4.754,-2.97 -6.914,-4.75 -0.348,-0.27 -0.852,-1.57 -1.297,-1.73 h -0.864 c -0.457,-0.38 -1.187,-1.97 -1.726,-2.16 h -0.867 c -1.231,-1.01 -1.903,-2.78 -3.02,-3.89 -1.004,-0.97 -2.676,-1.42 -3.457,-2.59 -0.84,-1.22 -1.836,-3.84 -2.164,-5.19 -0.391,-1.58 0.168,-2.97 -0.43,-4.31 -0.375,-0.82 -4.281,-4.32 -5.187,-5.19 -0.227,0.17 -1.606,0.4 -1.727,0.43 -0.121,0.85 -0.582,6.64 -0.863,7.35 -0.324,0.78 -1.945,0.82 -2.594,1.29 -2.051,1.5 -4.844,4.7 -6.047,6.92 -1.984,3.6 -1.203,5.64 0.434,8.63 3.305,6.13 9.367,8.62 18.578,8.64 z" /><path
         id="path94"
         style="fill:#244ba6;fill-opacity:1;fill-rule:nonzero;stroke:none"
         d="m 1202.03,1273.89 c 5.24,1.07 11.35,3.41 17.72,3.88 20.43,1.51 38.2,-4.57 51.7,-16.72 0,0 2.89,-2.66 6.3,-7.2 3.25,-4.34 5.8,-9.35 5.08,-8.05 2.78,-5.02 4.44,-10.19 6.47,-15.98 3.98,-11.36 3.94,-25.35 0.43,-37.59 0,0 -2.07,-7.91 -4.77,-12.86 -2.71,-4.96 -4.06,-7.66 -9.01,-12.83 -5.78,-6.05 -15.07,-12.83 -22.27,-17.33 0,0 -9.23,-4.95 -19.36,-8.78 -10.12,-3.82 -22.72,-8.09 -34.43,-9.9 -4.28,-0.65 -6.3,-0.45 -11.68,-0.95 -4.84,-0.45 -10.24,-0.28 -14.69,0 -4.45,0.28 -8.64,0.86 -8.64,0.86 -18.68,1.68 -33.17,6.62 -46.23,14.7 0,0 -12.14,5.87 -24.74,20.72 -12.61,14.63 -14.98,26.77 -16.45,31.5 -2.6,8.32 -4.6,17.48 -5.91,26.41 l -1.73,14.69 c -0.36,4.83 -0.75,11.03 -0.44,15.17 0.31,4.25 0.7,8.66 0.88,12.91 v 3.89 c 0.19,4.82 1.24,12.73 0.43,18.14 -0.65,4.26 -3.87,8.28 -5.81,11.41 0,0 -3.45,4.84 -5.18,6.98 0,0 -4.72,5.62 -8.78,11.7 -4.04,6.07 -8.93,13.05 -10.04,20.9 -1.03,7.28 1.9,13.98 4.32,18.14 l 5.05,8.21 c 2.92,4.5 4.34,6.28 5.32,8.21 l 3.02,6.05 c 3.11,6.96 3.59,14.1 5.83,23.33 0.45,-0.21 1.89,0.16 2.38,0 1.09,-0.36 6.18,-10.13 11.23,-21.17 1.34,2.16 3.53,4.81 4.85,6.99 2.9,4.82 4.95,8.77 7.88,13.5 0.06,-0.11 2.33,0.13 2.47,0 0.58,-0.57 0.97,-2.83 1.35,-3.61 1.47,-3.04 2.15,-5.47 3.76,-8.67 0.43,-0.88 1.09,-2.44 1.73,-3.46 l 1.29,-3.02 c 0.53,-2.06 3.46,-6.2 4.32,-8.64 3.28,-9.42 4.87,-25.33 2.17,-36.72 -1.19,-4.98 -3.64,-10.12 -5.62,-14.26 0,0 -1.8,-3.53 -4.05,-6.91 -2.25,-3.37 -6.75,-7.93 -7.18,-8.21 -4.59,2.68 -8.91,6.89 -12.17,10.91 l 3.52,2.91 c 2.31,2.16 4.92,5.4 6.49,8.21 4.71,8.52 4.64,24.92 -1.69,30.06 -3.6,2.93 -5.57,2.53 -7.87,2.7 -8.78,0.68 -16.88,-12.82 -15.51,-23.69 1.13,-8.9 6.76,-16.23 11,-22.21 1.43,-2 2.55,-3.56 4.12,-5.44 3.24,-3.83 7.57,-6.44 9.51,-11.66 3.83,-10.29 1.01,-31.72 1.23,-40.51 l 0.9,-13.72 c 1.44,-14.17 5.16,-32.88 9.97,-44.28 0,0 5.65,-10.43 8.64,-14.69 2.99,-4.27 14.47,-18.22 33.27,-24.63 29.14,-9.94 66.68,-6.21 88.14,8.2 0,0 6.62,3.51 14.58,15.31 6.97,10.35 6.75,22.05 6.75,22.05 0.9,7.88 -2.18,21.08 -11.03,27.46 -5.63,4.05 -12.19,5.61 -23.26,5.61 2.89,-9.81 6.4,-18.6 7.34,-31.11 0.92,-12.32 -2.78,-21.88 -1.3,-32.83 -9.51,-6.51 -23.95,-10.29 -38.14,-11.88 l 0.55,5.39 c 0.29,3.84 0.62,7.85 0.87,11.24 1.38,18.57 -1.42,38.73 -6.59,47.05 -4.79,7.7 -8.76,11.46 -10.13,12.83 -5.17,5.17 -8.77,4.5 -8.77,4.5 -2.61,0.47 -10.83,-2.11 -13.39,-2.6 -11.05,-2.05 -21.51,-3 -33.27,-3.88 -2.3,-0.17 -10.83,-2.03 -12.96,-1.3 -0.19,0.07 -0.41,0.77 -0.87,0.87 -0.89,6.53 -0.77,12.69 -1.29,19.87 -0.32,4.14 -1.11,8.72 -1.3,13.39 11.09,0.88 21.36,1.54 31.11,3.46 6.93,1.38 14.27,3.39 21.6,5.18 6.7,1.66 12.9,5.74 22.04,3.89 6.52,-1.31 13.06,-5.09 17.71,-8.64 0.69,-0.52 4.22,-4.61 4.75,-4.75 l 6.48,1.3" /><path
         id="path96"
         style="fill:none;stroke:#244ba6;stroke-width:3.5999999;stroke-linecap:butt;stroke-linejoin:miter;stroke-miterlimit:4;stroke-dasharray:none;stroke-opacity:1"
         d="m 1202.03,1273.89 c 5.24,1.07 11.35,3.41 17.72,3.88 20.43,1.51 38.2,-4.57 51.7,-16.72 0,0 2.89,-2.66 6.3,-7.2 3.25,-4.34 5.8,-9.35 5.08,-8.05 2.78,-5.02 4.44,-10.19 6.47,-15.98 3.98,-11.36 3.94,-25.35 0.43,-37.59 0,0 -2.07,-7.91 -4.77,-12.86 -2.71,-4.96 -4.06,-7.66 -9.01,-12.83 -5.78,-6.05 -15.07,-12.83 -22.27,-17.33 0,0 -9.23,-4.95 -19.36,-8.78 -10.12,-3.82 -22.72,-8.09 -34.43,-9.9 -4.28,-0.65 -6.3,-0.45 -11.68,-0.95 -4.84,-0.45 -10.24,-0.28 -14.69,0 -4.45,0.28 -8.64,0.86 -8.64,0.86 -18.68,1.68 -33.17,6.62 -46.23,14.7 0,0 -12.14,5.87 -24.74,20.72 -12.61,14.63 -14.98,26.77 -16.45,31.5 -2.6,8.32 -4.6,17.48 -5.91,26.41 l -1.73,14.69 c -0.36,4.83 -0.75,11.03 -0.44,15.17 0.31,4.25 0.7,8.66 0.88,12.91 v 3.89 c 0.19,4.82 1.24,12.73 0.43,18.14 -0.65,4.26 -3.87,8.28 -5.81,11.41 0,0 -3.45,4.84 -5.18,6.98 0,0 -4.72,5.62 -8.78,11.7 -4.04,6.07 -8.93,13.05 -10.04,20.9 -1.03,7.28 1.9,13.98 4.32,18.14 l 5.05,8.21 c 2.92,4.5 4.34,6.28 5.32,8.21 l 3.02,6.05 c 3.11,6.96 3.59,14.1 5.83,23.33 0.45,-0.21 1.89,0.16 2.38,0 1.09,-0.36 6.18,-10.13 11.23,-21.17 1.34,2.16 3.53,4.81 4.85,6.99 2.9,4.82 4.95,8.77 7.88,13.5 0.06,-0.11 2.33,0.13 2.47,0 0.58,-0.57 0.97,-2.83 1.35,-3.61 1.47,-3.04 2.15,-5.47 3.76,-8.67 0.43,-0.88 1.09,-2.44 1.73,-3.46 l 1.29,-3.02 c 0.53,-2.06 3.46,-6.2 4.32,-8.64 3.28,-9.42 4.87,-25.33 2.17,-36.72 -1.19,-4.98 -3.64,-10.12 -5.62,-14.26 0,0 -1.8,-3.53 -4.05,-6.91 -2.25,-3.37 -6.75,-7.93 -7.18,-8.21 -4.59,2.68 -8.91,6.89 -12.17,10.91 l 3.52,2.91 c 2.31,2.16 4.92,5.4 6.49,8.21 4.71,8.52 4.64,24.92 -1.69,30.06 -3.6,2.93 -5.57,2.53 -7.87,2.7 -8.78,0.68 -16.88,-12.82 -15.51,-23.69 1.13,-8.9 6.76,-16.23 11,-22.21 1.43,-2 2.55,-3.56 4.12,-5.44 3.24,-3.83 7.57,-6.44 9.51,-11.66 3.83,-10.29 1.01,-31.72 1.23,-40.51 l 0.9,-13.72 c 1.44,-14.17 5.16,-32.88 9.97,-44.28 0,0 5.65,-10.43 8.64,-14.69 2.99,-4.27 14.47,-18.22 33.27,-24.63 29.14,-9.94 66.68,-6.21 88.14,8.2 0,0 6.62,3.51 14.58,15.31 6.97,10.35 6.75,22.05 6.75,22.05 0.9,7.88 -2.18,21.08 -11.03,27.46 -5.63,4.05 -12.19,5.61 -23.26,5.61 2.89,-9.81 6.4,-18.6 7.34,-31.11 0.92,-12.32 -2.78,-21.88 -1.3,-32.83 -9.51,-6.51 -23.95,-10.29 -38.14,-11.88 l 0.55,5.39 c 0.29,3.84 0.62,7.85 0.87,11.24 1.38,18.57 -1.42,38.73 -6.59,47.05 -4.79,7.7 -8.76,11.46 -10.13,12.83 -5.17,5.17 -8.77,4.5 -8.77,4.5 -2.61,0.47 -10.83,-2.11 -13.39,-2.6 -11.05,-2.05 -21.51,-3 -33.27,-3.88 -2.3,-0.17 -10.83,-2.03 -12.96,-1.3 -0.19,0.07 -0.41,0.77 -0.87,0.87 -0.89,6.53 -0.77,12.69 -1.29,19.87 -0.32,4.14 -1.11,8.72 -1.3,13.39 11.09,0.88 21.36,1.54 31.11,3.46 6.93,1.38 14.27,3.39 21.6,5.18 6.7,1.66 12.9,5.74 22.04,3.89 6.52,-1.31 13.06,-5.09 17.71,-8.64 0.69,-0.52 4.22,-4.61 4.75,-4.75 z" /><path
         id="path98"
         style="fill:#244ba6;fill-opacity:1;fill-rule:nonzero;stroke:none"
         d="m 712.281,1199.14 c -0.496,-2.3 -0.703,-3.8 -0.703,-3.8 -2.246,-23.41 -9,-30.83 -9,-30.83 l 2.25,-4.28 c 13.277,3.16 15.305,-1.79 15.305,-1.79 20.703,-18.91 32.176,-5.85 32.176,-5.85 1.578,-9.9 9.902,-19.58 9.902,-19.58 0.898,-2.03 6.754,-10.35 6.754,-10.35 -1.352,-3.83 5.625,-13.95 5.625,-13.95 7.875,-8.78 12.828,-6.31 12.828,-6.31 7.426,-3.37 14.398,6.31 15.07,5.85 0.676,-0.45 14.18,4.05 14.18,4.05 -4.875,-20.92 -58.285,-22.95 -63.23,-24.3 -4.954,-1.35 -6.977,-5.62 -6.977,-5.62 0,0 0.887,1.6 0,0 l -1.465,-2.61 c -2.754,-4.98 -8.543,-15.81 -9.562,-20.57 -1.352,-6.3 0.675,-1.8 -2.926,-10.57 -3.602,-8.79 -0.453,-13.29 -0.453,-13.29 -1.121,-6.07 3.605,-18.89 3.605,-18.89 1.121,-11.49 3.82,-20.259 3.82,-20.259 0.45,-0.671 3.157,-2.929 3.157,-2.929 0,-4.949 18.222,-11.922 18.676,-13.719 0.449,-1.809 26.328,-15.078 27.003,-15.984 0.293,-0.391 3.262,-3.157 3.262,-3.157 0,0 4.688,-4.507 5.961,-6.289 2.25,-3.156 5.406,0.45 5.406,0.45 1.934,1.98 5.395,5.839 5.395,5.839 28.129,32.196 18.906,52.718 18.906,57.388 0,9.94 -32.183,19.81 -32.183,19.81 l 0.453,3.82 c 39.382,5.4 39.832,-8.77 39.832,-8.77 7.875,-28.14 11.25,-39.837 24.523,-41.185 13.277,-1.348 26.328,29.935 26.328,29.935 1.356,-13.73 -2.019,-29.259 -2.019,-29.259 -0.68,-1.125 -0.68,-6.524 -0.68,-6.524 -2.926,-4.953 -7.871,-8.554 -7.871,-8.554 -1.129,-3.829 -4.277,-6.524 -4.277,-6.524 -3.461,1.234 -10.497,-4.617 -16.141,-10.137 l -8.313,-8.843 -0.984,-1.411 c -4.496,1.707 -8.566,2.836 -13.719,3.075 -18.75,0.871 -38.554,-11.102 -45.152,-14.703 -4.602,-2.504 -13.508,-8.098 -15.906,-9.598 -2.403,-1.5 -25.953,-15.656 -46.957,-33.281 v -54.606 c 21.004,17.629 43.543,32.043 45.945,33.539 2.398,1.5 11.301,7.098 15.898,9.606 6.61,3.593 26.415,15.57 45.157,14.699 18.211,-0.848 37.586,-16.426 51.308,-27.676 l 3.375,-2.707 c 14.629,-11.473 20.703,-15.976 29.028,-15.976 5.429,0 17.691,6.496 22.281,9.453 l 9.902,5.625 c 13.379,7.433 25.356,12.922 40.961,19.797 9.219,4.062 21.635,8.464 26.885,8.359 0.62,-0.012 1.42,0.105 2.02,0.078 l 1.28,-0.078 c 13.96,-0.813 27.03,-7.805 49.24,-26.352 l 4.28,-3.601 c 19.13,-14.852 28.13,-17.383 32.33,-16.446 13.05,2.93 20.11,10.141 27.98,15.317 3.5,2.301 20.69,13.062 25.43,15.758 24.97,14.172 37.57,15.976 46.8,15.527 5.4,-0.266 9.45,-1.582 18.68,-7.207 11.7,-7.129 21.78,-14.746 24.53,-16.648 2.74,-1.907 16.87,-13.278 16.87,-13.278 3.84,-3.226 13.84,-12.578 18.5,-17.304 v 55.507 c -4.66,4.727 -13.65,12.914 -17.48,16.137 0,0 -0.67,0.973 -4.73,4.191 l -1.8,1.426 v 0 c 4.28,15.528 0.9,24.981 0.45,27.676 -0.45,2.703 -1.8,5.398 -3.6,7.656 -1.8,2.246 1.35,3.598 1.35,3.598 1.8,-2.25 15.75,0.902 23.85,2.25 8.1,1.348 11.25,13.957 11.25,13.957 -6.74,11.699 -15.29,17.098 -13.95,60.302 1.35,43.2 -8.55,43.2 -8.55,45.46 0,2.25 -15.75,6.75 -15.75,6.75 -21.6,14.4 -23.85,46.8 -23.85,46.8 -10.81,-7.65 -41.41,-11.25 -41.41,-11.25 0,0 -0.9,-32.85 29.7,-45.91 0,0 23.65,-5.87 25.66,-9.9 2.7,-5.4 7.2,-9 7.2,-57.15 0,0 9.9,-26.11 14.85,-27.008 0,0 -5.55,-9 -18.6,-8.551 l -4.8,-2.395 c 0,0 -10.81,-12.753 -6.3,-16.808 0,0 3.6,-12.899 -1.5,-19.199 v 0 c -12.6,10.199 -24.16,14.98 -29.56,15.238 -1.79,0.09 -6.3,-0.238 -6.3,-0.238 2.08,4.328 6.23,7.617 8.86,9.601 l 1.23,0.938 c 5.76,4.375 8.74,2.988 9.26,4.765 2.25,7.649 14.86,23.399 13.5,23.399 -1.34,0 -7.19,17.108 -7.19,17.108 -1.8,12.6 -0.04,30.4 -27.01,28.35 -35.55,-2.7 -54.91,24.76 -54.91,24.76 -8.04,11.13 -21.6,20.7 -21.6,20.7 -7.2,4.5 -18.9,-3.16 -18.9,-3.16 -7.2,-4.05 -42.3,-20.7 -70.21,-28.34 -27.04,-7.42 -53.102,-5.41 -61.653,-4.51 v 0 l -0.457,-3.15 c 0,0 -5.265,-23.79 -7.195,-26.11 -2.25,-2.69 9.449,-17.992 8.101,-22.047 -1.355,-4.05 17.547,3.606 21.602,5.852 0,0 1.953,-1.047 4.496,-4.953 2.555,-3.895 15.606,-6.297 27.006,5.855 0,0 58.51,36.453 93.62,40.953 0,0 6.74,-6.75 14.39,-10.8 0,0 -12.14,-22.05 -24.3,-29.707 0,0 1.35,-3.594 -0.45,-4.497 -1.8,-0.906 1.35,-11.25 2.7,-12.156 1.35,-0.898 10.02,-16.289 5.88,-22.312 l -1.12,0.148 c -1.6,0.348 -12.88,3.016 -19.62,0.035 l -0.45,-0.183 c -1.31,-0.578 -2.4,-1.375 -3.14,-2.438 -4.95,-7.105 -5.51,-13.277 -7.54,-15.301 0,0 6.64,-6.004 -4.61,-22.957 l -0.9,-1.464 c 0,0 -6.87,7.089 -13.39,12.265 -7.76,5.969 -17.79,11.465 -17.22,12.156 4.84,5.852 11.03,10.911 16.2,12.262 3.29,0.856 4.73,0.34 4.73,0.34 0.68,1.297 0.85,2.344 1.8,4.613 l 0.31,0.524 c 1.1,2.644 2.83,6.25 6.22,11.511 6.08,9.465 8.1,22.051 9,24.758 0.9,2.696 -2.7,9.003 -3.15,11.253 -0.45,2.25 0,6.74 0,10.35 0,3.6 -1.8,4.05 -1.8,4.05 -8.56,-2.7 -25.2,-13.95 -26.55,-14.85 -1.36,-0.9 2.25,-13.959 3.6,-15.756 1.35,-1.797 0,-6.746 0,-6.746 -5.86,-9.902 -8.11,-17.559 -8.11,-17.559 -4.49,-1.074 -9.2,-3.945 -13.23,-7.011 l -0.49,-0.41 c -6.07,-4.61 -10.13,-9.231 -10.13,-9.231 l -1.95,0.305 c -1.76,0.457 -3.68,0.664 -5.7,0.664 l -1.13,-0.071 c -9.84,0.012 -20.925,-4.726 -28.577,-8.093 -15.606,-6.875 -25.321,-12.082 -38.7,-19.504 l -11.402,-6.004 c -2.293,-1.477 -7.086,-4.309 -11.402,-6.301 l 0.296,2.402 c 7.204,17.7 7.5,26.106 6.301,31.204 -1.195,5.101 -1.797,6.601 -1.797,6.601 3.903,8.699 21.063,2.547 29.364,5.664 2.402,0.899 2.593,1.102 3.492,1.914 l 0.695,0.664 c 3.949,3.575 2.754,7.957 2.754,7.957 0.902,17.403 -15,39.001 -13.504,39.001 1.5,0 9.305,37.21 9.305,37.21 9.461,9.79 17.41,23.31 23.402,35.86 0,0 3.301,6.89 6.301,15.9 3.695,11.08 9.602,28.06 9.602,28.06 l -1.8,1.79 c -20.103,-12.59 -40.208,-10.5 -40.208,-10.5 l -0.598,-2.09 c 0.301,-2.41 -7.949,-33.46 -7.949,-33.46 -3.301,-10.37 -6.949,-19.8 -8.555,-21.15 -3.898,-3.3 -1.797,-6.91 -3.898,-8.11 -2.106,-1.2 -3.903,-5.99 -3.903,-5.99 0,0 -4.5,-7.21 -6.601,-16.51 -2.098,-9.3 1.5,-16.8 1.5,-16.8 1.801,-16.203 7.5,-20.406 7.5,-20.406 3.902,-0.598 12.902,-18.605 6.601,-19.805 -6.296,-1.199 -10.351,-3.3 -15.3,-2.101 -4.305,1.047 -6.004,1.203 -6.004,1.203 -2.297,-0.129 -5.926,-3.711 -8.996,-9 l -6.153,-14.551 c 8.098,-5.855 -10.953,-29.555 -10.953,-29.555 v 0 c -3.219,2.379 -4.34,2.278 -8.703,5.704 l -8.098,5.703 c -5.175,4.238 -9.062,5.886 -15.48,10.34 0,0 6.555,8.937 7.676,10.957 1.129,2.027 8.332,6.074 9.679,6.523 1.352,0.449 6.75,2.258 6.75,2.258 0.524,0.492 0.75,0.574 1.239,1.121 l 0.277,0.441 c 7.488,8.407 10.879,22.352 11.09,23.414 0.222,1.125 -1.129,8.774 -1.129,8.774 11.023,59.86 -4.047,65.71 -4.047,65.71 h -2.477 c -14.855,-24.75 -24.531,-29.26 -29.707,-29.93 -5.175,-0.67 -9.902,6.97 -10.578,8.56 -0.672,1.57 -5.398,9.21 -6.297,12.59 -0.902,3.38 -8.101,11.03 -9.453,11.93 -1.347,0.9 -18.902,0.9 -19.8,0.9 -0.903,0 -15.528,-3.82 -20.254,-4.05 -4.727,-0.22 -12.153,-3.15 -13.723,-3.38 -1.578,-0.22 -1.578,-2.92 -1.578,-2.92 -2.703,-2.7 -3.375,-14.62 -3.375,-14.62 l -0.449,-9.01 c 6.523,-1.12 10.121,-3.16 13.949,-5.4 8.711,-5.13 7.652,-14.18 7.652,-14.18 1.352,-1.57 -4.726,-15.977 -4.726,-15.977 1.8,4.054 -2.028,-7.872 -3.825,-5.848 -4.644,5.223 -8.101,6.523 -14.628,12.371 -6.528,5.854 4.054,-3.145 -1.348,1.584 -5.406,4.72 -13.055,6.52 -14.402,8.1 -1.352,1.58 -6.301,20.92 -5.625,21.82 0.671,0.91 -0.899,8.55 -1.129,9.23 -0.223,0.67 11.48,31.06 11.48,31.06 16.66,-1.82 34.828,3.53 47.68,8.64 l 2.5,0.81 c 10.258,4.08 14.629,7.19 14.629,7.19 -6.528,17.79 -5.625,25.66 -5.625,25.66 10.121,-0.68 22.722,7.66 22.722,7.66 1.578,-0.91 9.68,10.35 10.801,11.02 1.238,0.74 12.828,15.3 12.828,15.3 16.203,19.57 15.754,50.18 15.754,50.18 13.949,-0.29 22.953,7.5 22.953,7.5 16.199,16.8 13.457,19.11 14.399,22.21 1.285,4.18 6,6 6,6 l -1.196,3.59 c -7.504,-1.5 -19.804,7.81 -19.804,7.81 -22.203,16.2 -55.203,7.8 -55.203,7.8 l 4.199,-6.6 c 28.203,2.4 41.406,-13.2 39.601,-16.81 -1.8,-3.59 -13.203,-10.19 -25.804,-10.8 -10.899,-0.52 -18.903,-0.9 -17.098,-0.9 1.801,0 3.301,-15.89 3.301,-15.89 0,0 -1.809,-13.51 -3,-29.41 -1.801,-24 -11.778,-31.88 -11.778,-31.88 -24.605,1.2 -45.828,-12.52 -47.632,-13.13 -1.801,-0.6 -10.801,6.6 -10.203,8.4 0.605,1.81 -1.797,8.41 -0.598,11.41 1.203,2.99 -9.004,23.4 -10.203,24.59 -1.196,1.21 -6.602,26.41 -6.602,26.41 l -4.801,-1.2 c -3.597,-21.6 -37.203,-18 -37.203,-18 1.707,2.13 6.074,9.44 8.399,18 0,0 2.058,8.82 2.406,10.2 1.199,4.8 7.801,11.4 7.801,11.4 1.797,2.41 11.996,3 11.996,3 l 2.402,2.4 c -39.605,11.41 -28.805,40.21 -28.805,40.21 0,0 11.106,-16.13 21.606,-16.8 7.406,-0.48 15.004,2.4 18,8.4 3.004,6 23.402,14.4 27.609,11.4 4.2,-3 19.2,1.8 19.2,1.8 22.199,14.4 1.199,36.6 1.199,36.6 31.207,-1.79 23.402,-43.2 23.402,-43.2 2.399,-0.6 13.805,3 13.805,3 0,0 35.39,12.5 45.601,11.4 61.211,-6.6 77.411,-67.81 77.411,-67.81 h 14.406 l 15.601,-3.6 c -18.605,33.61 -20.406,42.61 -20.406,45.01 0,2.4 6.004,4.2 6.004,4.2 0.598,2.4 66.612,-13.21 66.612,-13.21 l 1.2,34.21 c -67.812,24 -132.621,26.4 -132.621,26.4 -6.601,1.81 -66.011,-16.8 -66.011,-16.8 -2.395,19.81 -12.602,27.61 -26.399,33.01 -19.5,7.63 -45.605,0.6 -45.605,0.6 v -4.2 c 11.398,-3.6 15,-15.01 10.801,-22.21 -4.2,-7.2 -7.805,-5.4 -7.805,-5.4 -22.801,3.01 -37.207,-18 -37.207,-18 0,0 -2.246,-1.57 -6.297,-0.22 -14.074,4.68 -15.754,22.72 -15.754,22.72 l -2.027,2.93 c -47.93,-30.83 -11.024,-72.68 -11.024,-72.68 -6.5,-4.88 -9.711,-16.33 -11,-22.31 M 1172.77,944.453 c -5.36,-0.926 -38.13,-21.879 -41.63,-24.18 -0.96,-0.632 -16.2,-10.816 -29.25,-13.738 v 0 c 1.57,4.278 6.07,19.461 0.67,31.621 -1.94,4.364 1.36,8.094 1.36,8.094 0,0 29.77,-2.273 34.2,9.902 0.91,2.493 -2.36,1.782 -3.26,4.145 l -0.27,0.301 c -2.24,3.183 -4.57,10.75 -4.12,30.664 0,0 25.65,5.847 36.9,22.048 0,0 2.26,-1.35 8.56,-2.69 6.3,-1.36 21.14,-2.26 24.3,-1.81 3.15,0.45 0,-6.75 11.25,-18.451 l -2.25,-5.851 -4.05,-8.102 c 0,0 -12.32,1.594 -24.41,-15.808 l -0.83,-0.938 c -2.88,-4.148 -5.7,-8.703 -7.17,-15.207 v 0" /><path
         id="path100"
         style="fill:none;stroke:#244ba6;stroke-width:3.5999999;stroke-linecap:butt;stroke-linejoin:miter;stroke-miterlimit:4;stroke-dasharray:none;stroke-opacity:1"
         d="m 712.281,1199.14 c -0.496,-2.3 -0.703,-3.8 -0.703,-3.8 -2.246,-23.41 -9,-30.83 -9,-30.83 l 2.25,-4.28 c 13.277,3.16 15.305,-1.79 15.305,-1.79 20.703,-18.91 32.176,-5.85 32.176,-5.85 1.578,-9.9 9.902,-19.58 9.902,-19.58 0.898,-2.03 6.754,-10.35 6.754,-10.35 -1.352,-3.83 5.625,-13.95 5.625,-13.95 7.875,-8.78 12.828,-6.31 12.828,-6.31 7.426,-3.37 14.398,6.31 15.07,5.85 0.676,-0.45 14.18,4.05 14.18,4.05 -4.875,-20.92 -58.285,-22.95 -63.23,-24.3 -4.954,-1.35 -6.977,-5.62 -6.977,-5.62 0,0 0.887,1.6 0,0 l -1.465,-2.61 c -2.754,-4.98 -8.543,-15.81 -9.562,-20.57 -1.352,-6.3 0.675,-1.8 -2.926,-10.57 -3.602,-8.79 -0.453,-13.29 -0.453,-13.29 -1.121,-6.07 3.605,-18.89 3.605,-18.89 1.121,-11.49 3.82,-20.259 3.82,-20.259 0.45,-0.671 3.157,-2.929 3.157,-2.929 0,-4.949 18.222,-11.922 18.676,-13.719 0.449,-1.809 26.328,-15.078 27.003,-15.984 0.293,-0.391 3.262,-3.157 3.262,-3.157 0,0 4.688,-4.507 5.961,-6.289 2.25,-3.156 5.406,0.45 5.406,0.45 1.934,1.98 5.395,5.839 5.395,5.839 28.129,32.196 18.906,52.718 18.906,57.388 0,9.94 -32.183,19.81 -32.183,19.81 l 0.453,3.82 c 39.382,5.4 39.832,-8.77 39.832,-8.77 7.875,-28.14 11.25,-39.837 24.523,-41.185 13.277,-1.348 26.328,29.935 26.328,29.935 1.356,-13.73 -2.019,-29.259 -2.019,-29.259 -0.68,-1.125 -0.68,-6.524 -0.68,-6.524 -2.926,-4.953 -7.871,-8.554 -7.871,-8.554 -1.129,-3.829 -4.277,-6.524 -4.277,-6.524 -3.461,1.234 -10.497,-4.617 -16.141,-10.137 l -8.313,-8.843 -0.984,-1.411 c -4.496,1.707 -8.566,2.836 -13.719,3.075 -18.75,0.871 -38.554,-11.102 -45.152,-14.703 -4.602,-2.504 -13.508,-8.098 -15.906,-9.598 -2.403,-1.5 -25.953,-15.656 -46.957,-33.281 v -54.606 c 21.004,17.629 43.543,32.043 45.945,33.539 2.398,1.5 11.301,7.098 15.898,9.606 6.61,3.593 26.415,15.57 45.157,14.699 18.211,-0.848 37.586,-16.426 51.308,-27.676 l 3.375,-2.707 c 14.629,-11.473 20.703,-15.976 29.028,-15.976 5.429,0 17.691,6.496 22.281,9.453 l 9.902,5.625 c 13.379,7.433 25.356,12.922 40.961,19.797 9.219,4.062 21.635,8.464 26.885,8.359 0.62,-0.012 1.42,0.105 2.02,0.078 l 1.28,-0.078 c 13.96,-0.813 27.03,-7.805 49.24,-26.352 l 4.28,-3.601 c 19.13,-14.852 28.13,-17.383 32.33,-16.446 13.05,2.93 20.11,10.141 27.98,15.317 3.5,2.301 20.69,13.062 25.43,15.758 24.97,14.172 37.57,15.976 46.8,15.527 5.4,-0.266 9.45,-1.582 18.68,-7.207 11.7,-7.129 21.78,-14.746 24.53,-16.648 2.74,-1.907 16.87,-13.278 16.87,-13.278 3.84,-3.226 13.84,-12.578 18.5,-17.304 v 55.507 c -4.66,4.727 -13.65,12.914 -17.48,16.137 0,0 -0.67,0.973 -4.73,4.191 l -1.8,1.426 v 0 c 4.28,15.528 0.9,24.981 0.45,27.676 -0.45,2.703 -1.8,5.398 -3.6,7.656 -1.8,2.246 1.35,3.598 1.35,3.598 1.8,-2.25 15.75,0.902 23.85,2.25 8.1,1.348 11.25,13.957 11.25,13.957 -6.74,11.699 -15.29,17.098 -13.95,60.302 1.35,43.2 -8.55,43.2 -8.55,45.46 0,2.25 -15.75,6.75 -15.75,6.75 -21.6,14.4 -23.85,46.8 -23.85,46.8 -10.81,-7.65 -41.41,-11.25 -41.41,-11.25 0,0 -0.9,-32.85 29.7,-45.91 0,0 23.65,-5.87 25.66,-9.9 2.7,-5.4 7.2,-9 7.2,-57.15 0,0 9.9,-26.11 14.85,-27.008 0,0 -5.55,-9 -18.6,-8.551 l -4.8,-2.395 c 0,0 -10.81,-12.753 -6.3,-16.808 0,0 3.6,-12.899 -1.5,-19.199 v 0 c -12.6,10.199 -24.16,14.98 -29.56,15.238 -1.79,0.09 -6.3,-0.238 -6.3,-0.238 2.08,4.328 6.23,7.617 8.86,9.601 l 1.23,0.938 c 5.76,4.375 8.74,2.988 9.26,4.765 2.25,7.649 14.86,23.399 13.5,23.399 -1.34,0 -7.19,17.108 -7.19,17.108 -1.8,12.6 -0.04,30.4 -27.01,28.35 -35.55,-2.7 -54.91,24.76 -54.91,24.76 -8.04,11.13 -21.6,20.7 -21.6,20.7 -7.2,4.5 -18.9,-3.16 -18.9,-3.16 -7.2,-4.05 -42.3,-20.7 -70.21,-28.34 -27.04,-7.42 -53.102,-5.41 -61.653,-4.51 v 0 l -0.457,-3.15 c 0,0 -5.265,-23.79 -7.195,-26.11 -2.25,-2.69 9.449,-17.992 8.101,-22.047 -1.355,-4.05 17.547,3.606 21.602,5.852 0,0 1.953,-1.047 4.496,-4.953 2.555,-3.895 15.606,-6.297 27.006,5.855 0,0 58.51,36.453 93.62,40.953 0,0 6.74,-6.75 14.39,-10.8 0,0 -12.14,-22.05 -24.3,-29.707 0,0 1.35,-3.594 -0.45,-4.497 -1.8,-0.906 1.35,-11.25 2.7,-12.156 1.35,-0.898 10.02,-16.289 5.88,-22.312 l -1.12,0.148 c -1.6,0.348 -12.88,3.016 -19.62,0.035 l -0.45,-0.183 c -1.31,-0.578 -2.4,-1.375 -3.14,-2.438 -4.95,-7.105 -5.51,-13.277 -7.54,-15.301 0,0 6.64,-6.004 -4.61,-22.957 l -0.9,-1.464 c 0,0 -6.87,7.089 -13.39,12.265 -7.76,5.969 -17.79,11.465 -17.22,12.156 4.84,5.852 11.03,10.911 16.2,12.262 3.29,0.856 4.73,0.34 4.73,0.34 0.68,1.297 0.85,2.344 1.8,4.613 l 0.31,0.524 c 1.1,2.644 2.83,6.25 6.22,11.511 6.08,9.465 8.1,22.051 9,24.758 0.9,2.696 -2.7,9.003 -3.15,11.253 -0.45,2.25 0,6.74 0,10.35 0,3.6 -1.8,4.05 -1.8,4.05 -8.56,-2.7 -25.2,-13.95 -26.55,-14.85 -1.36,-0.9 2.25,-13.959 3.6,-15.756 1.35,-1.797 0,-6.746 0,-6.746 -5.86,-9.902 -8.11,-17.559 -8.11,-17.559 -4.49,-1.074 -9.2,-3.945 -13.23,-7.011 l -0.49,-0.41 c -6.07,-4.61 -10.13,-9.231 -10.13,-9.231 l -1.95,0.305 c -1.76,0.457 -3.68,0.664 -5.7,0.664 l -1.13,-0.071 c -9.84,0.012 -20.925,-4.726 -28.577,-8.093 -15.606,-6.875 -25.321,-12.082 -38.7,-19.504 l -11.402,-6.004 c -2.293,-1.477 -7.086,-4.309 -11.402,-6.301 l 0.296,2.402 c 7.204,17.7 7.5,26.106 6.301,31.204 -1.195,5.101 -1.797,6.601 -1.797,6.601 3.903,8.699 21.063,2.547 29.364,5.664 2.402,0.899 2.593,1.102 3.492,1.914 l 0.695,0.664 c 3.949,3.575 2.754,7.957 2.754,7.957 0.902,17.403 -15,39.001 -13.504,39.001 1.5,0 9.305,37.21 9.305,37.21 9.461,9.79 17.41,23.31 23.402,35.86 0,0 3.301,6.89 6.301,15.9 3.695,11.08 9.602,28.06 9.602,28.06 l -1.8,1.79 c -20.103,-12.59 -40.208,-10.5 -40.208,-10.5 l -0.598,-2.09 c 0.301,-2.41 -7.949,-33.46 -7.949,-33.46 -3.301,-10.37 -6.949,-19.8 -8.555,-21.15 -3.898,-3.3 -1.797,-6.91 -3.898,-8.11 -2.106,-1.2 -3.903,-5.99 -3.903,-5.99 0,0 -4.5,-7.21 -6.601,-16.51 -2.098,-9.3 1.5,-16.8 1.5,-16.8 1.801,-16.203 7.5,-20.406 7.5,-20.406 3.902,-0.598 12.902,-18.605 6.601,-19.805 -6.296,-1.199 -10.351,-3.3 -15.3,-2.101 -4.305,1.047 -6.004,1.203 -6.004,1.203 -2.297,-0.129 -5.926,-3.711 -8.996,-9 l -6.153,-14.551 c 8.098,-5.855 -10.953,-29.555 -10.953,-29.555 v 0 c -3.219,2.379 -4.34,2.278 -8.703,5.704 l -8.098,5.703 c -5.175,4.238 -9.062,5.886 -15.48,10.34 0,0 6.555,8.937 7.676,10.957 1.129,2.027 8.332,6.074 9.679,6.523 1.352,0.449 6.75,2.258 6.75,2.258 0.524,0.492 0.75,0.574 1.239,1.121 l 0.277,0.441 c 7.488,8.407 10.879,22.352 11.09,23.414 0.222,1.125 -1.129,8.774 -1.129,8.774 11.023,59.86 -4.047,65.71 -4.047,65.71 h -2.477 c -14.855,-24.75 -24.531,-29.26 -29.707,-29.93 -5.175,-0.67 -9.902,6.97 -10.578,8.56 -0.672,1.57 -5.398,9.21 -6.297,12.59 -0.902,3.38 -8.101,11.03 -9.453,11.93 -1.347,0.9 -18.902,0.9 -19.8,0.9 -0.903,0 -15.528,-3.82 -20.254,-4.05 -4.727,-0.22 -12.153,-3.15 -13.723,-3.38 -1.578,-0.22 -1.578,-2.92 -1.578,-2.92 -2.703,-2.7 -3.375,-14.62 -3.375,-14.62 l -0.449,-9.01 c 6.523,-1.12 10.121,-3.16 13.949,-5.4 8.711,-5.13 7.652,-14.18 7.652,-14.18 1.352,-1.57 -4.726,-15.977 -4.726,-15.977 1.8,4.054 -2.028,-7.872 -3.825,-5.848 -4.644,5.223 -8.101,6.523 -14.628,12.371 -6.528,5.854 4.054,-3.145 -1.348,1.584 -5.406,4.72 -13.055,6.52 -14.402,8.1 -1.352,1.58 -6.301,20.92 -5.625,21.82 0.671,0.91 -0.899,8.55 -1.129,9.23 -0.223,0.67 11.48,31.06 11.48,31.06 16.66,-1.82 34.828,3.53 47.68,8.64 l 2.5,0.81 c 10.258,4.08 14.629,7.19 14.629,7.19 -6.528,17.79 -5.625,25.66 -5.625,25.66 10.121,-0.68 22.722,7.66 22.722,7.66 1.578,-0.91 9.68,10.35 10.801,11.02 1.238,0.74 12.828,15.3 12.828,15.3 16.203,19.57 15.754,50.18 15.754,50.18 13.949,-0.29 22.953,7.5 22.953,7.5 16.199,16.8 13.457,19.11 14.399,22.21 1.285,4.18 6,6 6,6 l -1.196,3.59 c -7.504,-1.5 -19.804,7.81 -19.804,7.81 -22.203,16.2 -55.203,7.8 -55.203,7.8 l 4.199,-6.6 c 28.203,2.4 41.406,-13.2 39.601,-16.81 -1.8,-3.59 -13.203,-10.19 -25.804,-10.8 -10.899,-0.52 -18.903,-0.9 -17.098,-0.9 1.801,0 3.301,-15.89 3.301,-15.89 0,0 -1.809,-13.51 -3,-29.41 -1.801,-24 -11.778,-31.88 -11.778,-31.88 -24.605,1.2 -45.828,-12.52 -47.632,-13.13 -1.801,-0.6 -10.801,6.6 -10.203,8.4 0.605,1.81 -1.797,8.41 -0.598,11.41 1.203,2.99 -9.004,23.4 -10.203,24.59 -1.196,1.21 -6.602,26.41 -6.602,26.41 l -4.801,-1.2 c -3.597,-21.6 -37.203,-18 -37.203,-18 1.707,2.13 6.074,9.44 8.399,18 0,0 2.058,8.82 2.406,10.2 1.199,4.8 7.801,11.4 7.801,11.4 1.797,2.41 11.996,3 11.996,3 l 2.402,2.4 c -39.605,11.41 -28.805,40.21 -28.805,40.21 0,0 11.106,-16.13 21.606,-16.8 7.406,-0.48 15.004,2.4 18,8.4 3.004,6 23.402,14.4 27.609,11.4 4.2,-3 19.2,1.8 19.2,1.8 22.199,14.4 1.199,36.6 1.199,36.6 31.207,-1.79 23.402,-43.2 23.402,-43.2 2.399,-0.6 13.805,3 13.805,3 0,0 35.39,12.5 45.601,11.4 61.211,-6.6 77.411,-67.81 77.411,-67.81 h 14.406 l 15.601,-3.6 c -18.605,33.61 -20.406,42.61 -20.406,45.01 0,2.4 6.004,4.2 6.004,4.2 0.598,2.4 66.612,-13.21 66.612,-13.21 l 1.2,34.21 c -67.812,24 -132.621,26.4 -132.621,26.4 -6.601,1.81 -66.011,-16.8 -66.011,-16.8 -2.395,19.81 -12.602,27.61 -26.399,33.01 -19.5,7.63 -45.605,0.6 -45.605,0.6 v -4.2 c 11.398,-3.6 15,-15.01 10.801,-22.21 -4.2,-7.2 -7.805,-5.4 -7.805,-5.4 -22.801,3.01 -37.207,-18 -37.207,-18 0,0 -2.246,-1.57 -6.297,-0.22 -14.074,4.68 -15.754,22.72 -15.754,22.72 l -2.027,2.93 c -47.93,-30.83 -11.024,-72.68 -11.024,-72.68 -6.5,-4.88 -9.711,-16.33 -11,-22.31 M 1172.77,944.453 c -5.36,-0.926 -38.13,-21.879 -41.63,-24.18 -0.96,-0.632 -16.2,-10.816 -29.25,-13.738 v 0 c 1.57,4.278 6.07,19.461 0.67,31.621 -1.94,4.364 1.36,8.094 1.36,8.094 0,0 29.77,-2.273 34.2,9.902 0.91,2.493 -2.36,1.782 -3.26,4.145 l -0.27,0.301 c -2.24,3.183 -4.57,10.75 -4.12,30.664 0,0 25.65,5.847 36.9,22.048 0,0 2.26,-1.35 8.56,-2.69 6.3,-1.36 21.14,-2.26 24.3,-1.81 3.15,0.45 0,-6.75 11.25,-18.451 l -2.25,-5.851 -4.05,-8.102 c 0,0 -12.32,1.594 -24.41,-15.808 l -0.83,-0.938 c -2.88,-4.148 -5.7,-8.703 -7.17,-15.207 v 0" /><path
         id="path102"
         style="fill:#244ba6;fill-opacity:1;fill-rule:nonzero;stroke:none"
         d="m 314.633,103.625 v 26.309 l 58.808,6.804 v 0.305 l -58.808,8.008 v 29.031 l 58.808,8.008 v 0.305 l -58.808,6.804 v 26.309 l 81.793,-16.629 v -30.848 l -57.906,-8.312 v -0.305 l 57.906,-8.316 v -30.844 l -81.793,-16.629" /><path
         id="path104"
         style="fill:#244ba6;fill-opacity:1;fill-rule:nonzero;stroke:none"
         d="m 314.633,215.527 v 26.309 l 58.808,6.801 v 0.301 l -58.808,8.015 v 29.031 l 58.808,8.012 v 0.301 l -58.808,6.808 v 26.301 l 81.793,-16.625 V 279.934 L 338.52,271.621 V 271.32 L 396.426,263 v -30.84 l -81.793,-16.633" /><path
         id="path106"
         style="fill:#244ba6;fill-opacity:1;fill-rule:nonzero;stroke:none"
         d="m 314.633,327.426 v 26.312 l 58.808,6.801 v 0.301 l -58.808,8.019 v 29.024 l 58.808,8.015 v 0.305 L 314.633,413 v 26.309 l 81.793,-16.633 v -30.84 l -57.906,-8.32 v -0.297 l 57.906,-8.317 v -30.843 l -81.793,-16.633" /><path
         id="path108"
         style="fill:#244ba6;fill-opacity:1;fill-rule:nonzero;stroke:none"
         d="m 366.488,440.707 v 25.402 h 29.938 v -25.402 h -29.938" /><path
         id="path110"
         style="fill:#244ba6;fill-opacity:1;fill-rule:nonzero;stroke:none"
         d="m 398.543,510.832 c 0,-31.894 -19.504,-34.777 -43.09,-34.777 -21.469,0 -42.937,4.086 -42.937,34.777 0,31.902 19.5,34.773 43.089,34.773 21.469,0 42.938,-4.082 42.938,-34.773 z m -17.539,0 c 0,6.199 -4.836,7.563 -25.399,7.563 -20.714,0 -25.55,-1.364 -25.55,-7.563 0,-6.047 4.836,-7.559 25.55,-7.559 20.563,0 25.399,1.512 25.399,7.559" /><path
         id="path112"
         style="fill:#244ba6;fill-opacity:1;fill-rule:nonzero;stroke:none"
         d="m 314.633,548.945 v 27.219 l 21.918,8.164 -21.918,9.375 v 27.215 l 39.609,-20.566 42.184,21.621 v -27.215 l -24.645,-9.524 24.645,-9.98 v -27.211 l -42.184,21.617 -39.609,-20.715" /><path
         id="path114"
         style="fill:#244ba6;fill-opacity:1;fill-rule:nonzero;stroke:none"
         d="m 332.926,630.754 v -9.375 h -18.293 v 9.375 h -5.899 c -16.328,0 -22.379,6.348 -22.379,25.242 0,3.938 0.305,8.77 0.911,13.008 h 17.086 c -0.305,-1.367 -0.457,-2.574 -0.457,-4.539 0,-3.328 1.668,-6.5 5.75,-6.5 h 4.988 v 11.039 h 18.293 v -11.039 h 63.5 v -27.211 h -63.5" /><path
         id="path116"
         style="fill:#244ba6;fill-opacity:1;fill-rule:nonzero;stroke:none"
         d="m 398.543,706.797 c 0,-31.899 -19.504,-34.774 -43.09,-34.774 -21.469,0 -42.937,4.082 -42.937,34.774 0,31.906 19.5,34.777 43.089,34.777 21.469,0 42.938,-4.082 42.938,-34.777 z m -17.539,0 c 0,6.203 -4.836,7.558 -25.399,7.558 -20.714,0 -25.55,-1.355 -25.55,-7.558 0,-6.043 4.836,-7.559 25.55,-7.559 20.563,0 25.399,1.516 25.399,7.559" /><path
         id="path118"
         style="fill:#244ba6;fill-opacity:1;fill-rule:nonzero;stroke:none"
         d="m 314.633,749.297 v 26.308 h 13 v 0.305 c -9.824,3.02 -15.117,10.278 -15.117,18.289 v 4.387 h 25.398 c -0.453,-2.418 -0.605,-4.531 -0.605,-6.797 0,-9.684 3.781,-15.273 14.515,-15.273 h 44.602 v -27.219 h -81.793" /><path
         id="path120"
         style="fill:#244ba6;fill-opacity:1;fill-rule:nonzero;stroke:none"
         d="m 288.477,843.32 v 27.219 H 396.426 V 844.23 h -11.192 v -0.304 c 9.071,-3.328 13.309,-8.922 13.309,-18.598 0,-18.297 -14.516,-24.492 -44.754,-24.492 -30.84,0 -41.273,9.977 -41.273,25.098 0,7.711 3.019,14.359 11.336,17.086 v 0.3 z m 89.804,-7.558 c 0,6.203 -5.136,7.558 -22.676,7.558 -17.691,0 -22.832,-1.355 -22.832,-7.558 0,-6.352 5.141,-7.715 22.832,-7.715 17.54,0 22.676,1.363 22.676,7.715" /><path
         id="path122"
         style="fill:#244ba6;fill-opacity:1;fill-rule:nonzero;stroke:none"
         d="m 366.488,883.371 v 25.399 h 29.938 v -25.399 h -29.938" /><path
         id="path124"
         style="fill:#244ba6;fill-opacity:1;fill-rule:nonzero;stroke:none"
         d="m 314.633,963.02 v 25.398 h 80.43 c 22.378,0 29.179,-14.969 29.179,-34.168 0,-17.539 -4.383,-31.301 -22.976,-31.754 v 24.496 c 4.082,0 6.347,2.571 6.347,6.797 0,4.086 -1.054,8.32 -10.129,8.32 H 381.91 v -0.3 c 9.375,-3.477 12.246,-10.891 12.246,-18.45 0,-10.882 -6.347,-23.886 -40.367,-23.886 -31.598,0 -41.273,9.375 -41.273,25.25 0,7.562 3.625,14.965 13.457,17.992 v 0.305 z m 59.262,-8.469 c 0,4.992 -3.325,7.558 -20.559,7.558 -17.086,0 -20.563,-2.566 -20.563,-7.558 0,-5.141 3.477,-7.86 20.563,-7.86 17.234,0 20.559,2.719 20.559,7.86" /><path
         id="path126"
         style="fill:#244ba6;fill-opacity:1;fill-rule:nonzero;stroke:none"
         d="m 398.543,1032.09 c 0,-31.9 -19.504,-34.774 -43.09,-34.774 -21.469,0 -42.937,4.084 -42.937,34.774 0,31.91 19.5,34.78 43.089,34.78 21.469,0 42.938,-4.08 42.938,-34.78 z m -17.539,0 c 0,6.2 -4.836,7.56 -25.399,7.56 -20.714,0 -25.55,-1.36 -25.55,-7.56 0,-6.04 4.836,-7.56 25.55,-7.56 20.563,0 25.399,1.52 25.399,7.56" /><path
         id="path128"
         style="fill:#244ba6;fill-opacity:1;fill-rule:nonzero;stroke:none"
         d="m 314.633,1069 v 28.12 l 58.808,7.71 v 0.3 l -58.808,7.56 v 28.12 l 81.793,-19.95 V 1088.8 L 314.633,1069" /><path
         id="path130"
         style="fill:#244ba6;fill-opacity:1;fill-rule:nonzero;stroke:none"
         d="m 366.488,1138.55 v 25.4 h 29.938 v -25.4 h -29.938" /><path
         id="path132"
         style="fill:#244ba6;fill-opacity:1;fill-rule:nonzero;stroke:none"
         d="m 314.633,1176.32 v 27.22 h 53.976 c 6.801,0 9.672,1.81 9.672,6.65 0,4.84 -2.871,6.65 -9.672,6.65 h -53.976 v 27.21 h 81.793 v -26.3 h -9.981 v -0.31 c 8.012,-3.48 12.098,-10.43 12.098,-19.8 0,-11.94 -4.688,-21.32 -22.227,-21.32 h -61.683" /><path
         id="path134"
         style="fill:#244ba6;fill-opacity:1;fill-rule:nonzero;stroke:none"
         d="m 288.477,1254.16 v 27.22 h 54.429 v 0.3 l -28.273,15.12 v 29.03 l 33.711,-22.68 48.082,25.55 v -29.03 l -28.121,-13.76 7.105,-4.53 h 21.016 v -27.22 H 288.477" /><path
         id="path136"
         style="fill:none;stroke:#244ba6;stroke-width:10;stroke-linecap:butt;stroke-linejoin:miter;stroke-miterlimit:4;stroke-dasharray:none;stroke-opacity:1"
         d="M 491.938,121.309 V 1591.34" /></g></g></svg>